<svg width="30" height="12" viewBox="0 0 30 12" fill="none" xmlns="http://www.w3.org/2000/svg">
<g clip-path="url(#clip0_12713_130)">
<path d="M29.3385 2.91972C29.0044 1.68004 27.9444 0.79237 26.6944 0.690839C20.144 0.160438 13.6598 0.271547 8.32265 1.09289C5.20326 1.57468 2.47724 2.29737 0.355988 3.27699C3.0423 12.5508 16.7184 14.8634 18.6313 6.35021C18.6432 6.29609 18.6577 6.24197 18.675 6.18905C18.7224 6.04298 18.7885 5.90362 18.881 5.78173C19.0527 5.55976 19.2718 5.41225 19.5108 5.33658H19.5122C20.2013 5.11604 21.0317 5.49367 21.1912 6.41774C21.7378 9.97681 23.9502 11.7143 27.1831 11.5668C27.7771 11.5398 28.3104 11.188 28.5784 10.6439C28.6655 10.4653 28.7486 10.2773 28.8264 10.0824C29.6568 7.99026 29.9023 5.0078 29.3387 2.91972H29.3385ZM15.6993 3.17546C16.1031 3.23222 16.4068 3.58015 16.4292 3.99681C16.6696 8.50582 11.9225 10.4464 8.47845 8.16483C7.84215 7.74386 7.36165 7.11193 7.09629 6.38541C7.01453 6.16223 6.94702 5.94026 6.89423 5.71828C6.69101 4.85886 7.14908 3.97669 7.96081 3.67905C9.85641 2.98629 12.6287 2.74252 15.6993 3.1757V3.17546ZM22.9703 4.10097C23.0151 3.68695 23.3174 3.35123 23.7147 3.26191C25.2539 2.91685 26.7113 2.902 27.8161 3.62732C28.3599 3.9846 28.6702 4.61796 28.6702 5.27959C28.6662 7.98332 27.6907 9.67078 25.7647 9.09848C25.209 8.93349 24.722 8.59226 24.3232 8.16339C23.209 6.96179 22.8182 5.45822 22.97 4.10097H22.9703Z" fill="#F2C94C"/>
<g opacity="0.6">
<path d="M6.38243 6.44192C6.43522 6.6639 6.5025 6.88588 6.58449 7.10905C6.84985 7.83581 7.33035 8.46774 7.96665 8.88847C10.581 10.6202 13.9438 9.91767 15.3084 7.50751C13.7336 9.31734 10.8088 9.70862 8.47845 8.16483C7.84215 7.74386 7.36165 7.11193 7.09629 6.38541C7.01453 6.16223 6.94702 5.94026 6.89423 5.71828C6.81037 5.36364 6.8405 5.00589 6.96034 4.68597C6.46606 5.09664 6.22476 5.77551 6.38243 6.44192Z" fill="white"/>
<path d="M18.369 6.50562C18.2765 6.6275 18.2106 6.76687 18.163 6.91294C18.1457 6.96562 18.1312 7.01974 18.1193 7.07385C17.9396 7.87341 17.6561 8.57742 17.2877 9.18923C17.9086 8.42919 18.3755 7.48716 18.6311 6.35021C18.6404 6.30782 18.6526 6.26592 18.6652 6.22401C18.5566 6.29896 18.4563 6.39211 18.3688 6.50538L18.369 6.50562Z" fill="white"/>
<path d="M29.3385 2.91972C29.0044 1.68004 27.9444 0.79237 26.6944 0.690839C20.144 0.160438 13.6598 0.271547 8.32265 1.09289C5.20326 1.57468 2.47724 2.29737 0.355988 3.27699C0.398968 3.4257 0.44522 3.57273 0.493807 3.71784C2.51111 2.88093 5.0005 2.25067 7.81085 1.81654C13.148 0.995192 19.6322 0.884083 26.1824 1.41472C27.4326 1.51625 28.4926 2.40393 28.8264 3.64361C29.3901 5.73169 29.1446 8.71415 28.3142 10.8063C28.2618 10.9373 28.2065 11.0635 28.1497 11.1875C28.3249 11.041 28.4723 10.8583 28.5777 10.6442C28.6648 10.4655 28.7479 10.2776 28.8257 10.0827C29.6561 7.9905 29.9017 5.00804 29.338 2.91996L29.3385 2.91972Z" fill="white"/>
<path d="M22.9759 4.07152C22.6951 4.21687 22.4942 4.49464 22.4585 4.82486C22.3066 6.18211 22.6974 7.68567 23.8117 8.88727C24.2104 9.31615 24.6975 9.65737 25.2532 9.82236C26.3849 10.1588 27.188 9.71413 27.6592 8.74192C27.1899 9.18612 26.5583 9.33434 25.765 9.09872C25.2093 8.93373 24.7222 8.5925 24.3235 8.16363C23.2092 6.96203 22.8184 5.45846 22.9703 4.10121C22.9714 4.09115 22.9745 4.08158 22.9759 4.07152Z" fill="white"/>
</g>
<path d="M11.5639 12C7.11748 12 1.65283 9.03479 0.0153498 3.38069C-0.0353397 3.20565 0.0480527 3.01911 0.210166 2.94416C5.70472 0.406851 15.6158 -0.571338 26.7226 0.327111C28.1204 0.440136 29.3099 1.44275 29.6818 2.82203C30.3155 5.17184 29.9777 8.60496 28.8957 10.8077C28.5713 11.4679 27.9214 11.8985 27.1992 11.9313C23.7147 12.0903 21.397 10.1006 20.8401 6.47402C20.7686 6.06143 20.5135 5.7657 20.1414 5.66992C19.7763 5.57629 19.3913 5.70847 19.1606 6.00803C19.079 6.11387 19.0178 6.25683 18.9784 6.43235C18.222 9.79771 15.5672 11.8772 11.8769 11.9947C11.7734 11.9981 11.6686 11.9998 11.5639 11.9998V12ZM0.791109 3.47959C2.47484 8.71511 7.70146 11.398 11.8547 11.2658C15.2516 11.1576 17.5955 9.33627 18.2846 6.2688C18.3479 5.98744 18.4546 5.74774 18.6016 5.55641C19.0055 5.03152 19.6775 4.79829 20.3147 4.96232C20.9613 5.12874 21.4199 5.64884 21.5418 6.35357C22.044 9.62482 24.0408 11.3437 27.1674 11.2021C27.6325 11.1811 28.0511 10.904 28.2597 10.4794C29.2545 8.45386 29.5778 5.17567 28.9953 3.01647C28.7028 1.93196 27.7668 1.14343 26.6661 1.05459C15.8669 0.181041 6.23754 1.08715 0.791109 3.47959Z" fill="#212020"/>
<path d="M26.4709 9.51202C26.22 9.51202 25.9561 9.47155 25.6821 9.39014C25.1133 9.22108 24.5692 8.86932 24.1086 8.37268C23.0233 7.20292 22.501 5.63327 22.6753 4.06649C22.7355 3.52555 23.1277 3.08327 23.6512 2.9657C25.5101 2.54832 26.9252 2.68122 27.9769 3.37206C28.5975 3.77986 28.9675 4.49345 28.9666 5.28079C28.9645 7.14593 28.5251 8.46894 27.6959 9.10662C27.3457 9.37601 26.9306 9.51202 26.4709 9.51202ZM23.7781 3.55956C23.5024 3.62158 23.2962 3.85289 23.2646 4.13521C23.1102 5.52264 23.5744 6.91437 24.5384 7.95339C24.9269 8.37196 25.3796 8.66673 25.8474 8.80586C26.4464 8.98402 26.9481 8.92128 27.3401 8.62004C28.0047 8.10879 28.3719 6.92252 28.3737 5.27983C28.3744 4.70968 28.0997 4.17473 27.6571 3.88378C26.7447 3.28442 25.476 3.1781 23.7783 3.55932L23.7781 3.55956Z" fill="#212020"/>
<path d="M11.6182 9.42701C10.4836 9.42701 9.32663 9.0889 8.31681 8.42009C7.64149 7.97278 7.10914 7.28793 6.81808 6.49197C6.73282 6.25873 6.66181 6.02287 6.60645 5.79059C6.36491 4.77409 6.90451 3.7437 7.86154 3.39337C9.90523 2.64554 12.7765 2.45613 15.7401 2.87422C16.2809 2.95061 16.6953 3.41564 16.7252 3.98028C16.8338 6.01329 15.9702 7.73045 14.3556 8.69116C13.5285 9.18348 12.5813 9.42725 11.6182 9.42725V9.42701ZM8.06103 3.96592C7.39108 4.21112 7.0136 4.93357 7.18295 5.64644C7.23247 5.85525 7.29671 6.06789 7.37356 6.27837C7.62024 6.95316 8.06943 7.53242 8.6387 7.90908C10.3203 9.02281 12.4477 9.12338 14.0578 8.16483C15.4727 7.32289 16.2288 5.80975 16.133 4.01309C16.1183 3.73867 15.9191 3.51286 15.6591 3.47622C12.7878 3.07106 10.0181 3.24946 8.06103 3.96568V3.96592Z" fill="#212020"/>
<g opacity="0.3">
<path d="M18.6747 6.18929C18.6577 6.24198 18.643 6.29609 18.6311 6.35045C16.7184 14.8635 3.0423 12.5508 0.355988 3.277C2.47747 2.29737 5.20326 1.57468 8.32265 1.09289C8.15773 1.24184 7.99258 1.39054 7.82766 1.53805L8.03089 1.56774C7.16613 2.03468 6.2369 2.57323 5.86993 3.50161C5.5464 4.31768 5.74052 5.2487 6.01919 6.08369C6.3836 7.1797 6.91689 8.26636 7.81061 8.9742C9.11476 10.0067 10.9076 10.0379 12.5511 9.91743C13.3591 9.85661 14.1762 9.76849 14.9338 9.47227C16.6128 8.81736 17.7785 7.23669 18.6114 5.60478C18.6353 5.79826 18.6577 5.99318 18.6747 6.18929Z" fill="#212020"/>
</g>
<g opacity="0.3">
<path d="M28.8262 10.0824C28.7484 10.2773 28.6653 10.4653 28.5781 10.6439C28.3102 11.188 27.7769 11.5398 27.1829 11.5668C23.95 11.7143 21.7376 9.97681 21.191 6.41774C21.0312 5.49342 20.201 5.11604 19.512 5.33658H19.5106C19.3877 5.33921 19.2664 5.36507 19.1475 5.42183C19.1938 5.29467 19.2401 5.16752 19.2861 5.03893L18.9495 5.45032C19.2043 4.72644 20.1639 4.4774 20.8504 4.78989C21.537 5.10382 21.9752 5.80616 22.2602 6.51927C22.5454 7.23118 22.7182 7.9929 23.0838 8.66553C23.835 10.0527 25.4216 10.9133 26.9621 10.7725C27.6288 10.7117 28.2703 10.4641 28.826 10.0824H28.8262Z" fill="#212020"/>
</g>
</g>
<defs>
<clipPath id="clip0_12713_130">
<rect width="30" height="12" fill="white"/>
</clipPath>
</defs>
</svg>